<svg width="70" height="60" viewBox="0 0 70 60" fill="none" xmlns="http://www.w3.org/2000/svg">
<path d="M16.8741 59.2015H0V0.798479H17.8865C23.3799 0.798479 28.0765 1.95818 31.9763 4.27757C35.8949 6.59696 38.8947 9.92395 40.9758 14.2586C43.057 18.5932 44.0975 23.7928 44.0975 29.8574C44.0975 35.9791 43.0288 41.2357 40.8915 45.6274C38.7728 50 35.6792 53.3555 31.6107 55.6939C27.561 58.0323 22.6487 59.2015 16.8741 59.2015ZM5.25908 54.4106H16.5647C21.5144 54.4106 25.6579 53.422 28.9952 51.4449C32.3326 49.4677 34.8355 46.6445 36.5042 42.9753C38.1729 39.3061 39.0072 34.9335 39.0072 29.8574C38.9884 24.8194 38.1635 20.4848 36.5323 16.8536C34.9199 13.2224 32.5201 10.4373 29.3327 8.4981C26.1642 6.55893 22.2456 5.58935 17.5771 5.58935H5.25908V54.4106Z" fill="white"/>
<path d="M70 19.0494H64.7128C64.3191 17.0532 63.6066 15.2091 62.5754 13.5171C61.563 11.8061 60.288 10.3137 58.7506 9.03993C57.2132 7.76616 55.4696 6.77757 53.5197 6.07414C51.5698 5.37072 49.4605 5.01901 47.1919 5.01901C43.5546 5.01901 40.236 5.97909 37.2362 7.89924C34.2551 9.81939 31.8646 12.6426 30.0647 16.3688C28.2836 20.076 27.393 24.6198 27.393 30C27.393 35.4182 28.2836 39.981 30.0647 43.6882C31.8646 47.3954 34.2551 50.2091 37.2362 52.1293C40.236 54.0304 43.5546 54.981 47.1919 54.981C49.4605 54.981 51.5698 54.6293 53.5197 53.9259C55.4696 53.2224 57.2132 52.2433 58.7506 50.9886C60.288 49.7148 61.563 48.2224 62.5754 46.5114C63.6066 44.8004 64.3191 42.9468 64.7128 40.9506H70C69.5313 43.6312 68.6501 46.1312 67.3564 48.4506C66.0815 50.7509 64.4503 52.7662 62.4629 54.4962C60.4943 56.2262 58.2257 57.576 55.6571 58.5456C53.0884 59.5152 50.2667 60 47.1919 60C42.3547 60 38.0612 58.7738 34.3114 56.3213C30.5616 53.8498 27.618 50.3707 25.4806 45.884C23.362 41.3973 22.3027 36.1027 22.3027 30C22.3027 23.8973 23.362 18.6027 25.4806 14.116C27.618 9.62928 30.5616 6.15969 34.3114 3.70722C38.0612 1.23574 42.3547 0 47.1919 0C50.2667 0 53.0884 0.484791 55.6571 1.45437C58.2257 2.40494 60.4943 3.75475 62.4629 5.5038C64.4503 7.23384 66.0815 9.24905 67.3564 11.5494C68.6501 13.8498 69.5313 16.3498 70 19.0494Z" fill="white"/>
</svg>
