<svg width="32" height="27" viewBox="0 0 32 27" fill="none" xmlns="http://www.w3.org/2000/svg">
<path d="M7.83812 25.9998H0.380737V0.545277H8.28557C10.7134 0.545277 12.789 1.05072 14.5125 2.06161C16.2443 3.0725 17.57 4.52255 18.4898 6.41175C19.4095 8.30096 19.8694 10.5672 19.8694 13.2104C19.8694 15.8785 19.3971 18.1696 18.4525 20.0836C17.5162 21.9894 16.149 23.4519 14.3509 24.4711C12.5611 25.4902 10.3902 25.9998 7.83812 25.9998ZM2.70496 23.9118H7.70141C9.88891 23.9118 11.7201 23.4809 13.195 22.6191C14.6699 21.7574 15.7761 20.5269 16.5135 18.9277C17.251 17.3285 17.6197 15.4228 17.6197 13.2104C17.6114 11.0146 17.2469 9.12542 16.526 7.54279C15.8134 5.96017 14.7528 4.74627 13.3442 3.9011C11.9438 3.05593 10.2121 2.63334 8.14885 2.63334H2.70496V23.9118Z" fill="white"/>
<path d="M31.3168 8.49982H28.9802C28.8062 7.6298 28.4913 6.82605 28.0356 6.0886C27.5881 5.34286 27.0247 4.69241 26.3452 4.13725C25.6658 3.58209 24.8952 3.15122 24.0334 2.84464C23.1717 2.53806 22.2395 2.38477 21.2369 2.38477C19.6294 2.38477 18.1628 2.80321 16.8371 3.64009C15.5196 4.47698 14.4631 5.70745 13.6677 7.3315C12.8805 8.94727 12.4869 10.9276 12.4869 13.2726C12.4869 15.6341 12.8805 17.6227 13.6677 19.2385C14.4631 20.8542 15.5196 22.0806 16.8371 22.9174C18.1628 23.746 19.6294 24.1603 21.2369 24.1603C22.2395 24.1603 23.1717 24.007 24.0334 23.7005C24.8952 23.3939 25.6658 22.9672 26.3452 22.4203C27.0247 21.8651 27.5881 21.2147 28.0356 20.4689C28.4913 19.7232 28.8062 18.9153 28.9802 18.0453H31.3168C31.1097 19.2136 30.7202 20.3032 30.1485 21.3141C29.585 22.3167 28.8642 23.195 27.9859 23.949C27.1158 24.7031 26.1132 25.2914 24.978 25.714C23.8429 26.1365 22.5958 26.3478 21.2369 26.3478C19.0991 26.3478 17.2016 25.8134 15.5444 24.7445C13.8872 23.6673 12.5863 22.151 11.6417 20.1955C10.7054 18.24 10.2373 15.9324 10.2373 13.2726C10.2373 10.6127 10.7054 8.3051 11.6417 6.34961C12.5863 4.39412 13.8872 2.88192 15.5444 1.81303C17.2016 0.735854 19.0991 0.197266 21.2369 0.197266C22.5958 0.197266 23.8429 0.408558 24.978 0.831144C26.1132 1.24544 27.1158 1.83375 27.9859 2.59606C28.8642 3.35008 29.585 4.2284 30.1485 5.231C30.7202 6.23361 31.1097 7.32321 31.3168 8.49982Z" fill="white"/>
</svg>
