<svg width="60" height="50" viewBox="0 0 60 50" fill="none" xmlns="http://www.w3.org/2000/svg">
<path d="M14.4635 49.3346H0V0.6654H15.3313C20.0399 0.6654 24.0656 1.63181 27.4083 3.56464C30.767 5.49747 33.3383 8.26996 35.1221 11.8821C36.906 15.4943 37.7979 19.8273 37.7979 24.8812C37.7979 29.9826 36.8819 34.3631 35.0498 38.0228C33.2338 41.6667 30.5822 44.4629 27.0949 46.4116C23.6237 48.3603 19.4132 49.3346 14.4635 49.3346ZM4.50778 45.3422H14.1983C18.4409 45.3422 21.9925 44.5184 24.8531 42.8707C27.7136 41.2231 29.859 38.8704 31.2893 35.8127C32.7196 32.7551 33.4347 29.1112 33.4347 24.8812C33.4187 20.6828 32.7116 17.0707 31.3134 14.0447C29.9314 11.0187 27.8743 8.69772 25.1423 7.08175C22.4264 5.46578 19.0677 4.65779 15.0661 4.65779H4.50778V45.3422Z" fill="black"/>
<path d="M60 15.8745H55.4681C55.1306 14.211 54.52 12.6743 53.6361 11.2643C52.7683 9.8384 51.6755 8.59474 50.3577 7.53327C49.0399 6.4718 47.5453 5.64797 45.874 5.06179C44.2027 4.4756 42.3947 4.18251 40.4502 4.18251C37.3325 4.18251 34.488 4.98257 31.9168 6.5827C29.3615 8.18283 27.3125 10.5355 25.7698 13.6407C24.2431 16.73 23.4797 20.5165 23.4797 25C23.4797 29.5152 24.2431 33.3175 25.7698 36.4068C27.3125 39.4962 29.3615 41.8409 31.9168 43.4411C34.488 45.0253 37.3325 45.8175 40.4502 45.8175C42.3947 45.8175 44.2027 45.5244 45.874 44.9382C47.5453 44.352 49.0399 43.5361 50.3577 42.4905C51.6755 41.429 52.7683 40.1854 53.6361 38.7595C54.52 37.3336 55.1306 35.789 55.4681 34.1255H60C59.5982 36.3593 58.8429 38.4426 57.7341 40.3755C56.6413 42.2925 55.2431 43.9718 53.5397 45.4135C51.8522 46.8552 49.9077 47.98 47.706 48.788C45.5044 49.596 43.0858 50 40.4502 50C36.304 50 32.6239 48.9781 29.4098 46.9344C26.1956 44.8748 23.6726 41.9756 21.8405 38.2367C20.0246 34.4978 19.1166 30.0856 19.1166 25C19.1166 19.9144 20.0246 15.5022 21.8405 11.7633C23.6726 8.0244 26.1956 5.13308 29.4098 3.08935C32.6239 1.02978 36.304 0 40.4502 0C43.0858 0 45.5044 0.403993 47.706 1.21198C49.9077 2.00412 51.8522 3.12896 53.5397 4.5865C55.2431 6.0282 56.6413 7.70754 57.7341 9.62453C58.8429 11.5415 59.5982 13.6248 60 15.8745Z" fill="black"/>
</svg>
